<svg width="20" height="20" viewBox="0 0 256 256" fill="none" xmlns="http://www.w3.org/2000/svg">
<path d="M58.1719 219.957C67.0145 199.317 72.5079 190.955 100.327 172.549C107.756 152.107 121.852 140.859 133.895 131.419C139.569 108.869 140.348 84.8372 135.943 75.0879C134.823 81.4132 126.055 89.3119 115.516 94.8052C120.055 105.605 127.953 115.403 136.412 119.589" stroke="white" stroke-width="5.22917" stroke-linecap="round" stroke-linejoin="round"/>
<path d="M187.023 221.238C182.837 196.896 178.223 181.008 195.135 168.192C173.098 171.526 158.234 149.488 158.234 149.488C137.994 161.019 124.154 174.854 109.807 181.776C87.7646 209.963 80.2072 208.171 58.1699 219.958M58.1699 219.958C58.1699 219.958 60.0899 227.771 59.4926 232H44.3726C49.1992 228.283 54.8366 227.003 58.1699 219.958ZM136.41 119.59C124.623 117.627 110.143 108.742 103.141 99.7763M186.415 71.1256C189.237 95.3016 171.135 105.067 172.842 125.568" stroke="white" stroke-width="5.22917" stroke-linecap="round" stroke-linejoin="round"/>
<path d="M167.535 52.6188C165.349 54.7735 163.066 56.2242 158.693 56.2242C154.319 56.2242 153.386 46.4108 153.487 41.3975C153.589 36.3842 154.191 24.1175 167.701 24.0002C176.687 23.9202 178.991 29.9415 178.095 40.9602C177.199 51.9788 176.853 57.2215 180.015 61.0775C187.962 59.4562 192.575 63.2108 195.989 68.1708C199.402 73.1308 202.911 85.5042 211.029 96.1868C211.791 117.968 205.642 129.072 190.778 137.787C199.322 129.755 201.626 112.416 200.517 101.734C200.517 101.734 186.506 91.0615 186.325 83.7335M172.842 125.568C188.73 134.88 197.637 144.875 211.087 158.71C215.317 179.979 193.429 179.296 187.023 221.238M187.023 221.238C192.319 224.827 196.586 230.55 207.69 232H178.997C178.309 226.448 187.023 221.238 187.023 221.238ZM149.525 61.1735C149.525 61.1735 140.325 63.8935 136.015 65.6908C123.322 70.9815 111.685 80.4695 103.141 99.7709" stroke="white" stroke-width="5.22917" stroke-linecap="round" stroke-linejoin="round"/>
</svg>
