<svg width="180" height="180" viewBox="0 0 180 180" fill="none" xmlns="http://www.w3.org/2000/svg">
<path d="M170.336 72.3404C167.265 64.052 159.938 50.0317 151.928 50.0317C150.331 50.0317 148.874 50.6138 147.645 51.6292C142.003 42.511 133.38 35.5782 121.905 30.8363C123.627 29.8725 125.393 28.9875 127.195 28.1842C118.114 24.8598 110.239 22.9163 103.421 22.0304C107.007 19.2292 109.403 18.152 109.403 18.152C67.3285 11.9813 41.5126 29.0138 30.7463 50.642C29.9054 50.2532 28.9923 50.0452 28.066 50.0317C20.0616 50.0317 12.7322 64.0492 9.66381 72.3348C4.69693 85.7588 2.31193 119.739 14.5969 130.925C13.9979 138.983 12.0094 157.329 6.42662 174.375H41.9176L40.1569 150.643C52.1551 161.719 70.0257 168.75 90.0001 168.75C109.974 168.75 127.842 161.719 139.84 150.649L138.083 174.375H173.573C167.988 157.329 165.999 138.983 165.406 130.925C177.688 119.728 175.303 85.7588 170.336 72.3404ZM24.1594 130.269C22.754 130.283 21.3599 130.016 20.0588 129.485C7.17475 123.953 7.98756 88.9454 13.5676 73.8676C17.4404 63.4135 23.8613 54.3348 28.066 54.3348C29.011 54.3348 29.8463 54.796 30.5129 55.8001C33.8879 60.8992 30.2569 61.5966 31.6238 67.1429C34.4954 78.7951 28.0097 90.6807 30.1585 96.1679C40.8544 123.536 31.3847 130.269 24.1594 130.269ZM125.53 115.957C129.293 120.797 131.496 126.444 131.496 132.508C131.496 150.272 112.919 164.661 90.0001 164.661C67.081 164.661 48.5044 150.272 48.5044 132.505C48.5044 126.442 50.7066 120.794 54.4726 115.954C41.5716 107.902 33.3113 95.5576 33.3113 81.7257C33.3085 32.2735 90.0001 63.7763 90.0001 63.7763C90.0001 63.7763 146.689 32.2735 146.689 81.7285C146.689 95.5604 138.428 107.902 125.53 115.957ZM159.938 129.485C158.819 129.969 157.379 130.269 155.835 130.269C148.613 130.269 139.14 123.534 149.842 96.1679C151.99 90.6807 145.502 78.7923 148.376 67.1429C149.738 61.5938 146.112 60.8963 149.487 55.8001C150.151 54.796 150.986 54.3348 151.931 54.3348C156.139 54.3348 162.56 63.4163 166.433 73.8676C172.007 88.9454 172.82 123.953 159.938 129.485Z" fill="black"/>
<path d="M96.0329 114.719C97.5882 114.719 98.8454 112.134 98.8454 108.934C98.8454 105.747 97.5882 103.143 96.0329 103.143C94.4776 103.143 93.2204 105.747 93.2204 108.934C93.2204 112.134 94.4776 114.719 96.0329 114.719ZM83.9645 114.719C85.5198 114.719 86.777 112.134 86.777 108.934C86.777 105.747 85.5198 103.143 83.9645 103.143C82.4092 103.143 81.152 105.747 81.152 108.934C81.152 112.134 82.4092 114.719 83.9645 114.719ZM90.0001 127.263C76.8123 127.263 63.3967 123.688 62.3082 124.613C58.3032 128.028 70.5939 144.129 90.0001 144.233C109.406 144.135 121.703 128.028 117.684 124.611C116.601 123.691 103.188 127.266 90.0001 127.263Z" fill="black"/>
<path d="M114.418 100.558C119.855 100.558 124.262 94.893 124.262 87.9047C124.262 80.9164 119.855 75.2512 114.418 75.2512C108.982 75.2512 104.574 80.9164 104.574 87.9047C104.574 94.893 108.982 100.558 114.418 100.558Z" fill="black"/>
<path d="M65.5818 100.558C71.0183 100.558 75.4255 94.893 75.4255 87.9047C75.4255 80.9164 71.0183 75.2512 65.5818 75.2512C60.1452 75.2512 55.738 80.9164 55.738 87.9047C55.738 94.893 60.1452 100.558 65.5818 100.558Z" fill="black"/>
</svg>
