<svg width="180" height="180" viewBox="0 0 180 180" fill="none" xmlns="http://www.w3.org/2000/svg">
<path d="M96.0358 114.756C97.5911 114.756 98.8483 112.174 98.8483 108.97C98.8483 105.784 97.5911 103.179 96.0358 103.179C94.4805 103.179 93.2233 105.784 93.2233 108.97C93.2233 112.174 94.4833 114.756 96.0358 114.756ZM83.9674 103.182C82.4121 103.182 81.1549 105.787 81.1549 108.973C81.1549 112.177 82.4121 114.758 83.9674 114.758C85.5227 114.758 86.7799 112.177 86.7799 108.973C86.7799 105.784 85.5227 103.182 83.9674 103.182ZM67.8742 85.1512C62.8202 88.7175 58.6717 92.0728 58.6717 92.0728C58.6717 92.0728 62.8736 89.1562 67.8742 85.1512ZM55.1055 76.8796C52.4899 78.9187 50.8052 80.339 50.8052 80.339C50.8052 80.339 52.5855 78.9496 55.1055 76.8796Z" fill="black"/>
<path d="M174.375 92.7225C174.375 82.0716 167.152 73.1391 157.34 70.4419C157.143 69.5504 157.005 68.7178 156.786 67.8038C156.071 64.7916 154.735 59.2538 151.335 56.9925C146.143 44.8425 136.246 35.9691 121.995 30.316C125.215 28.6172 127.297 27.7622 127.297 27.7622C118.195 24.5672 110.295 22.6941 103.455 21.8419C107.052 19.1391 109.454 18.1097 109.454 18.1097C61.0256 11.2782 34.0059 33.8822 26.7272 58.8572C24.7106 61.5319 23.7741 65.4497 23.2116 67.8066C22.995 68.7122 22.8572 69.5419 22.6631 70.4279C12.8475 73.1194 5.62781 82.0688 5.62781 92.7254C5.62781 102.718 11.9784 111.203 20.8603 114.452L5.625 174.372H39.2316C38.0447 168.5 38.3512 151.062 39.3891 145.142C51.4209 156.125 69.6234 163.122 90 163.122C110.377 163.122 128.585 156.128 140.617 145.142C141.654 151.059 141.964 168.5 140.771 174.372H174.375L159.143 114.441C168.024 111.201 174.375 102.715 174.375 92.7225ZM13.7222 92.7225C13.7222 87.3169 16.6219 82.665 20.9222 80.0241C19.4456 90.5288 19.7438 99.2588 21.9066 106.059C17.0578 103.542 13.7222 98.55 13.7222 92.7225ZM90 62.0438C90 62.0438 127.305 41.9541 141.182 60.1735C140.659 60.8007 140.15 61.4672 139.649 62.1197C138.952 63.0366 137.798 64.5413 136.924 65.385C132.744 62.0297 122.349 54.6694 111.507 54.6694C110.59 54.6694 109.673 54.7257 108.782 54.8354C106.535 55.0913 104.85 56.4553 104.262 58.4607C104.154 58.8167 104.078 59.182 104.037 59.5519C102.395 59.071 100.918 58.8291 99.6047 58.8291C96.0244 58.8291 93.9797 60.48 92.9025 61.8694C90.5822 64.8507 90.8016 68.4197 93.7969 72.9675C92.7562 73.3472 92.0222 73.9463 91.5328 74.475C90.8072 75.2738 90.045 76.6632 90.0056 78.7416C89.9662 76.666 89.2041 75.2766 88.4756 74.475C87.8515 73.7984 87.0741 73.2814 86.2087 72.9675C89.2012 68.4197 89.4234 64.8479 87.1059 61.8694C86.0259 60.48 83.9897 58.8291 80.4009 58.8291C79.0903 58.8291 77.6109 59.071 75.9684 59.5519C75.9274 59.182 75.8521 58.8167 75.7434 58.4607C75.1556 56.4553 73.4625 55.0913 71.2209 54.8354C70.3158 54.7243 69.4047 54.6689 68.4928 54.6694C57.6506 54.6694 47.2641 62.0269 43.0847 65.3907C42.2044 64.5413 41.0541 63.0366 40.3537 62.1197C39.8531 61.4616 39.3441 60.7979 38.8237 60.1735C52.6978 41.9541 90 62.0438 90 62.0438ZM27.3178 68.7797C28.8422 62.3785 30.3806 60.196 31.9809 60.196C35.3981 60.196 39.1022 70.155 43.5628 70.155C43.7175 70.155 43.8722 70.1438 44.0297 70.1157C44.0297 70.1157 56.2275 58.8938 68.4956 58.8938C69.2438 58.8938 69.9834 58.9304 70.7259 59.0204C75.4734 59.58 62.2884 70.9903 55.1081 76.8797C61.6078 71.8313 73.8562 63.0478 80.4037 63.0478C81.8466 63.0478 83.0137 63.4754 83.7759 64.4597C86.9963 68.6025 76.3003 78.4125 67.8769 85.1513C73.6087 81.1041 80.5078 76.7813 83.8434 76.7813C85.2047 76.7813 85.9697 77.5041 85.815 79.2619C84.8587 90.1322 63.6553 115.433 50.7038 118.01C48.5831 118.432 46.5159 118.657 44.5331 118.657C29.0475 118.659 18.6553 105.176 27.3178 68.7797ZM90 159.193C67.2356 159.193 48.7856 145.33 48.7856 128.219C48.7856 126.248 49.0556 124.324 49.5337 122.459C50.1975 122.358 50.8528 122.285 51.5278 122.153C66.4228 119.194 88.7962 92.5847 90.0056 79.7119C91.2066 92.5847 113.577 119.188 128.475 122.158C129.15 122.288 129.805 122.358 130.469 122.459C130.947 124.324 131.217 126.248 131.217 128.219C131.214 145.33 112.764 159.193 90 159.193ZM135.473 118.659C133.49 118.659 131.42 118.434 129.299 118.013C116.347 115.436 95.1413 90.135 94.1934 79.2647C94.0387 77.5069 94.8038 76.7841 96.165 76.7841C99.5006 76.7841 106.4 81.1041 112.134 85.1541C103.714 78.4154 93.0122 68.6025 96.2325 64.4625C97.0003 63.4782 98.1675 63.0507 99.6047 63.0507C106.152 63.0507 118.403 71.8341 124.895 76.8825C117.72 70.9875 104.538 59.5857 109.277 59.0232C110.019 58.9332 110.765 58.8966 111.507 58.8966C123.778 58.8966 135.979 70.1185 135.979 70.1185C136.139 70.1466 136.291 70.1578 136.446 70.1578C140.901 70.1578 144.602 60.1988 148.019 60.1988C149.622 60.1988 151.161 62.3785 152.682 68.7825C161.35 105.176 150.952 118.659 135.473 118.659ZM159.083 80.0241C163.378 82.6622 166.281 87.3169 166.281 92.7225C166.281 98.55 162.945 103.545 158.102 106.054C160.262 99.2588 160.56 90.526 159.083 80.0241Z" fill="black"/>
<path d="M124.892 76.8796C127.412 78.9496 129.192 80.339 129.192 80.339C129.192 80.339 127.513 78.9187 124.892 76.8796ZM112.131 85.1512C117.135 89.1562 121.331 92.0728 121.331 92.0728C121.331 92.0728 117.185 88.7175 112.131 85.1512Z" fill="black"/>
<path d="M116.227 131.619C115.057 127.561 108.664 125.84 101.948 127.775C95.2314 129.711 90.7346 134.57 91.904 138.628C93.0735 142.686 99.4663 144.407 106.183 142.472C112.899 140.536 117.396 135.678 116.227 131.619Z" fill="black"/>
</svg>
