<svg width="180" height="180" viewBox="0 0 180 180" fill="none" xmlns="http://www.w3.org/2000/svg">
<path d="M164.947 66.074C160.301 60.359 153.959 57.3384 146.602 57.3384C137.497 57.3384 131.988 61.1297 128.97 64.3134C125.23 68.2985 123.143 73.555 123.131 79.02C123.131 88.6078 129.431 95.5715 138.116 95.5715C142.329 95.5715 146.489 93.5718 149.24 90.2222C152.139 86.684 153.2 82.0434 152.218 77.1553C151.943 75.777 151.131 74.5646 149.962 73.7846C148.792 73.0045 147.361 72.7208 145.983 72.9956C145.3 73.1317 144.651 73.401 144.073 73.7881C143.495 74.1753 142.999 74.6727 142.613 75.2518C142.227 75.831 141.959 76.4805 141.825 77.1633C141.69 77.8461 141.691 78.5487 141.829 79.2309C142.18 81 141.916 82.44 141.044 83.5059C140.15 84.5944 138.907 84.9797 138.116 84.9797C133.937 84.9797 133.72 80.0184 133.72 79.0228C133.72 74.9081 136.434 67.9387 146.599 67.9387C150.775 67.9387 154.088 69.5222 156.727 72.7678C165.347 83.3737 165.06 108.433 161.134 127.226C156.757 148.193 150.528 155.028 146.064 157.064C143.716 158.138 141.047 158.245 137.911 157.379C138.876 154.524 139.472 151.267 139.683 147.572C141.615 113.771 124.67 96.255 109.038 87.314C110.905 83.714 112.058 79.8412 112.25 75.7744C119.908 74.34 125.699 67.6462 125.699 59.5969C125.699 51.3844 119.669 44.595 111.791 43.349C109.822 29.8828 101.855 20.5228 88.4278 15.1959C90.7144 13.9865 92.2022 13.379 92.2022 13.379C85.7194 11.0981 80.1 9.77061 75.2344 9.16592C77.7994 7.23936 79.5094 6.50811 79.5094 6.50811C39.9684 0.928107 20.4806 22.9162 19.2544 43.3884C11.5116 44.7469 5.625 51.4772 5.625 59.594C5.625 67.6434 11.4159 74.3372 19.0659 75.7715C19.7606 90.5512 32.5491 102.982 50.1919 107.665L34.11 159.3C30.285 160.664 26.4516 164.309 23.9906 166.109C21.9516 167.594 11.25 167.923 14.7628 174.375H37.9659C40.4409 173.565 42.0047 172.17 42.8681 170.536L42.8709 170.539L42.9919 170.305C43.0172 170.255 43.0481 170.21 43.0706 170.156L71.775 115.526C72.9141 115.931 74.1684 116.317 75.5803 116.685C65.1656 120.485 62.3166 142.057 65.4328 162.652C58.4381 165.296 42.4069 166.829 46.4625 174.375H79.8891C81.7144 171.897 81.8437 169.377 80.9016 167.223C78.9834 154.1 82.3669 147.569 82.3669 147.569C81.3853 160.751 83.0812 174.375 105.922 174.375C117.65 174.375 126.461 172.08 132.151 166.657C134.882 167.69 138.206 168.559 141.817 168.559C144.588 168.559 147.527 168.047 150.472 166.697C160.324 162.188 167.209 149.985 171.506 129.381C175.745 109.105 176.563 80.3587 164.947 66.074ZM112.295 49.379C116.702 50.7206 119.931 54.7565 119.931 59.5969C119.931 64.5806 116.502 68.7375 111.884 69.9384C111.375 67.0483 110.425 64.2537 109.066 61.6528C111.06 57.8362 112.196 53.7047 112.295 49.379ZM40.725 168.41C40.3144 169.844 39.2287 170.904 37.4878 171.562H17.2519C18.2334 170.851 20.7337 170.162 21.7828 169.875C23.4112 169.425 24.6994 169.071 25.6528 168.376C26.2969 167.903 27.0394 167.307 27.8466 166.655C30.3525 164.621 34.1409 161.55 36.8494 161.55C37.4934 161.55 38.3484 161.699 39.3272 162.858C40.6575 164.438 41.22 166.672 40.725 168.41ZM19.4316 69.9384C14.8078 68.7375 11.3822 64.5834 11.3822 59.594C11.3822 54.7537 14.6081 50.7122 19.0237 49.3762C19.1347 53.6623 20.24 57.8641 22.2525 61.65C20.8772 64.2769 19.9462 67.0556 19.4316 69.9384ZM65.6522 106.886C49.4578 106.886 36.3291 97.0228 36.3291 84.8531C36.3291 80.699 37.8844 76.8318 40.5422 73.5159C31.4269 67.995 25.5938 59.5462 25.5938 50.0625C25.5938 16.1747 65.6578 37.7634 65.6578 37.7634C65.6578 37.7634 105.725 16.1747 105.725 50.0625C105.725 59.5434 99.8859 67.995 90.7622 73.5159C93.42 76.829 94.9809 80.7019 94.9809 84.8531C94.9809 97.0228 81.8494 106.886 65.6522 106.886ZM78.2972 171.562H48.8531C50.2031 169.734 56.34 168.131 60.0806 167.158C62.6962 166.477 65.1656 165.831 67.05 165.052C68.2589 164.546 69.5563 164.286 70.8666 164.287C74.0616 164.287 77.0934 165.87 78.2353 168.131C78.8006 169.242 78.8175 170.392 78.2972 171.562ZM79.2309 114.66C77.1527 114.236 75.1008 113.691 73.0856 113.029L75.2372 108.934C77.4938 108.57 79.727 108.074 81.9253 107.449C99.5766 111.755 104.839 129.209 106.329 141.089C102.451 131.192 94.5084 117.903 79.2309 114.66Z" fill="black"/>
<path d="M69.9523 75.2709C71.0567 75.2709 71.952 73.4287 71.952 71.1562C71.952 68.8837 71.0567 67.0415 69.9523 67.0415C68.8479 67.0415 67.9526 68.8837 67.9526 71.1562C67.9526 73.4287 68.8479 75.2709 69.9523 75.2709Z" fill="black"/>
<path d="M61.3605 75.2709C62.4649 75.2709 63.3602 73.4287 63.3602 71.1562C63.3602 68.8837 62.4649 67.0415 61.3605 67.0415C60.2561 67.0415 59.3608 68.8837 59.3608 71.1562C59.3608 73.4287 60.2561 75.2709 61.3605 75.2709Z" fill="black"/>
<path d="M83.0363 66.1499C86.904 66.1499 90.0395 62.1192 90.0395 57.1471C90.0395 52.175 86.904 48.1443 83.0363 48.1443C79.1686 48.1443 76.0332 52.175 76.0332 57.1471C76.0332 62.1192 79.1686 66.1499 83.0363 66.1499Z" fill="black"/>
<path d="M48.2906 66.1443C52.1599 66.1443 55.2965 62.1149 55.2965 57.1443C55.2965 52.1737 52.1599 48.1443 48.2906 48.1443C44.4213 48.1443 41.2847 52.1737 41.2847 57.1443C41.2847 62.1149 44.4213 66.1443 48.2906 66.1443Z" fill="black"/>
<path d="M45.7934 86.0569C44.553 89.0859 53.2577 95.2256 65.6609 95.2087C78.0584 95.2312 86.7659 89.0887 85.5255 86.0569C84.3387 82.9181 46.9802 82.9125 45.7934 86.0569Z" fill="black"/>
</svg>
