<svg width="180" height="180" viewBox="0 0 180 180" fill="none" xmlns="http://www.w3.org/2000/svg">
<path d="M174.375 92.7254C174.375 81.2223 165.954 71.7048 154.932 69.9076C152.187 50.9373 140.895 37.8198 121.992 30.3244C125.215 28.6229 127.299 27.7707 127.299 27.7707C118.193 24.5673 110.292 22.6969 103.458 21.8504C107.049 19.1448 109.451 18.1126 109.451 18.1126C53.8931 10.2769 26.4994 41.1835 24.7809 69.9498C13.8966 71.8623 5.625 81.3207 5.625 92.7254C5.625 104.018 13.7334 113.411 24.4547 115.456C24.9272 125.727 29.6269 135.155 37.1953 142.906C37.1572 145.689 37.3463 148.47 37.7606 151.223L18.4781 174.375H54.9028L57.555 171.99C58.3622 172.066 59.1862 172.111 60.0328 172.111C62.0944 172.111 64.2769 171.88 66.5128 171.442C71.1028 170.525 76.4578 167.158 81.6047 162.658C84.3581 162.934 87.1453 163.125 90 163.125C90.3037 163.125 90.6019 163.103 90.9056 163.097C99.8916 168.013 110.301 171.684 117.579 171.684C118.915 171.684 120.173 171.568 121.314 171.343C122.077 171.189 122.785 170.992 123.508 170.806L126.518 174.375H165.811L141.109 146.931C141.053 146.25 140.96 145.553 140.856 144.855C149.586 136.775 155.022 126.596 155.54 115.456C166.264 113.411 174.375 104.018 174.375 92.7254ZM25.0312 107.266C18.5344 105.573 13.7166 99.7398 13.7166 92.7282C13.7166 85.9304 18.2531 80.2519 24.4491 78.3732C24.5897 84.451 26.1928 90.2645 28.9912 95.6166C27.0838 99.2746 25.7483 103.203 25.0312 107.266ZM65.6888 167.299C63.8277 167.683 61.9331 167.882 60.0328 167.892C45.8297 167.892 36.2981 155.531 44.2463 122.155C45.6413 116.283 47.0503 114.278 48.5184 114.278C51.6516 114.278 55.0462 123.413 59.1356 123.413C59.2788 123.413 59.4217 123.401 59.5631 123.379C59.5631 123.379 70.7513 113.085 81.9956 113.085C82.6791 113.085 83.3597 113.124 84.0431 113.206C88.3913 113.724 76.3116 124.169 69.7303 129.569C72.5519 127.37 75.4575 125.28 78.4406 123.306C78.1605 123.998 78.0487 124.747 78.1144 125.491C78.1369 125.71 78.1706 125.935 78.2128 126.155C72.4275 126.923 70.3631 129.769 69.6853 132.219C68.7459 135.613 70.1184 138.611 74.1234 141.446C73.8647 141.728 73.6256 142.04 73.4119 142.391C72.7762 143.435 71.9381 145.626 73.4597 148.554C74.8575 151.251 77.7516 154.179 81.4669 157.025C76.0866 162.267 70.3181 166.376 65.6888 167.299ZM120.502 167.2C119.539 167.383 118.562 167.472 117.582 167.465C104.709 167.465 81.4556 154.831 77.2031 146.619C75.9544 144.214 77.9119 143.367 81.2728 143.367C84.825 143.367 89.9409 144.312 94.4831 145.344C84.9853 142.577 72.4697 137.99 73.7494 133.352C74.3962 131.012 77.4422 130.177 81.4528 130.177C87.9216 130.177 96.8991 132.345 102.378 133.858C94.2328 131.375 79.0875 126.315 82.9097 124.18C86.3662 122.251 90.4331 121.61 94.3284 121.61C102.223 121.61 109.417 124.256 109.417 124.256C113.903 123.19 113.085 111.519 116.781 111.519C118.131 111.519 120.085 113.079 123.123 117.293C145.752 148.677 137.635 163.823 120.502 167.2ZM88.3294 117.951C90.0309 117.304 91.6031 116.902 92.9166 116.902C93.7434 116.902 94.455 117.073 95.0541 117.408C94.8122 117.402 94.5731 117.391 94.3284 117.391C92.3159 117.394 90.3078 117.582 88.3294 117.951ZM124.833 112.587C121.818 108.88 119.385 107.297 116.783 107.297C111.755 107.297 110.337 112.599 109.401 116.103C109.153 117.025 108.759 118.499 108.366 119.498C105.796 118.758 103.178 118.202 100.53 117.833C100.27 117.025 99.8695 116.27 99.3459 115.602C98.8131 114.948 98.1766 114.385 97.4616 113.937C98.2913 112.939 98.8509 111.097 98.8509 108.97C98.8509 105.784 97.5938 103.179 96.0384 103.179C94.4775 103.179 93.2259 105.784 93.2259 108.97C93.2259 110.447 93.5016 111.777 93.9403 112.798C93.5944 112.759 93.2962 112.677 92.9194 112.677C91.7916 112.677 90.5316 112.869 89.1422 113.248C89.1001 113.026 89.0465 112.807 88.9819 112.59C88.6275 111.381 87.8006 110.436 86.7319 109.8C86.7516 109.524 86.7769 109.257 86.7769 108.97C86.7769 105.784 85.5197 103.179 83.9644 103.179C82.4147 103.179 81.1631 105.767 81.1547 108.931C71.6259 109.288 62.6287 115.479 58.7278 118.572C57.9769 117.799 55.9659 114.716 53.6766 112.435C46.8337 105.629 33.6909 92.6495 33.6909 79.3238C33.6909 31.6998 90 62.041 90 62.041C90 62.041 146.309 31.6998 146.309 79.3266C146.309 92.5426 137.478 104.825 124.833 112.587ZM151.006 95.6138C153.804 90.2588 155.405 84.4538 155.542 78.3704C161.738 80.2519 166.275 85.9304 166.275 92.7254C166.275 99.7398 161.454 105.573 154.96 107.263C154.248 103.2 152.915 99.2708 151.006 95.6138Z" fill="black"/>
<path d="M94.4829 145.344C100.114 146.987 104.681 147.991 104.681 147.991C104.681 147.991 100.004 146.602 94.4829 145.344ZM102.378 133.858C105.244 134.738 107.24 135.293 107.24 135.293C107.24 135.293 105.311 134.671 102.378 133.858Z" fill="black"/>
<path d="M114.424 101.942C119.86 101.942 124.268 96.2755 124.268 89.2856C124.268 82.2958 119.86 76.6294 114.424 76.6294C108.987 76.6294 104.58 82.2958 104.58 89.2856C104.58 96.2755 108.987 101.942 114.424 101.942Z" fill="black"/>
<path d="M65.5874 101.942C71.024 101.942 75.4312 96.2755 75.4312 89.2856C75.4312 82.2958 71.024 76.6294 65.5874 76.6294C60.1508 76.6294 55.7437 82.2958 55.7437 89.2856C55.7437 96.2755 60.1508 101.942 65.5874 101.942Z" fill="black"/>
</svg>
