<svg width="180" height="180" viewBox="0 0 180 180" fill="none" xmlns="http://www.w3.org/2000/svg">
<path d="M154.932 69.8992C152.184 50.9345 140.889 37.8198 121.995 30.3273C125.215 28.6257 127.297 27.7735 127.297 27.7735C118.195 24.5673 110.295 22.6998 103.455 21.8504C107.052 19.142 109.454 18.1126 109.454 18.1126C53.9016 10.277 26.5078 41.1751 24.7866 69.9414C13.9022 71.851 5.625 81.3095 5.625 92.7254C5.625 104.023 13.7334 113.409 24.4575 115.45C25.6838 141.93 54.5513 163.125 89.9972 163.125C125.449 163.125 154.316 141.93 155.542 115.45C166.264 113.406 174.375 104.018 174.375 92.7254C174.375 81.2167 165.952 71.6935 154.932 69.8992ZM25.0341 107.26C18.5372 105.573 13.7194 99.737 13.7194 92.7254C13.7194 85.9304 18.2559 80.2435 24.4519 78.3648C24.5897 84.4454 26.19 90.2589 28.9912 95.6167C27.0835 99.2723 25.7489 103.199 25.0341 107.26ZM125.291 112.286C129.026 116.944 131.214 122.383 131.214 128.219C131.214 145.325 112.759 159.185 89.9972 159.185C67.2356 159.185 48.7828 145.325 48.7828 128.219C48.7828 122.383 50.9681 116.944 54.7087 112.286C41.8922 104.529 33.6881 92.6551 33.6881 79.3267C33.6881 31.6998 89.9972 62.041 89.9972 62.041C89.9972 62.041 146.309 31.7026 146.309 79.3267C146.309 92.6523 138.105 104.529 125.291 112.286ZM154.966 107.26C154.25 103.199 152.916 99.2714 151.012 95.6139C153.813 90.256 155.41 84.4426 155.548 78.362C161.744 80.2435 166.278 85.9276 166.278 92.7226C166.278 99.737 161.463 105.573 154.966 107.26Z" fill="black"/>
<path d="M96.0328 114.758C97.5881 114.758 98.8453 112.174 98.8453 108.973C98.8453 105.786 97.5881 103.182 96.0328 103.182C94.4747 103.182 93.2203 105.786 93.2203 108.973C93.2203 112.174 94.4747 114.758 96.0328 114.758ZM83.9615 114.758C85.5169 114.758 86.774 112.174 86.774 108.973C86.774 105.786 85.5169 103.182 83.9615 103.182C82.4034 103.182 81.149 105.786 81.149 108.973C81.149 112.174 82.4034 114.758 83.9615 114.758Z" fill="black"/>
<path d="M114.418 101.942C119.855 101.942 124.262 96.2755 124.262 89.2856C124.262 82.2958 119.855 76.6294 114.418 76.6294C108.982 76.6294 104.574 82.2958 104.574 89.2856C104.574 96.2755 108.982 101.942 114.418 101.942Z" fill="black"/>
<path d="M65.5819 101.942C71.0185 101.942 75.4257 96.2755 75.4257 89.2856C75.4257 82.2958 71.0185 76.6294 65.5819 76.6294C60.1454 76.6294 55.7382 82.2958 55.7382 89.2856C55.7382 96.2755 60.1454 101.942 65.5819 101.942Z" fill="black"/>
<path d="M89.9943 127.797C76.8065 127.797 63.3909 124.223 62.3053 125.148C58.2974 128.562 70.5853 144.664 89.9943 144.771C109.401 144.672 121.697 128.565 117.681 125.148C116.595 124.225 103.185 127.8 89.9943 127.797Z" fill="black"/>
</svg>
